<?xml version="1.0" encoding="UTF-8"?>
<svg xmlns="http://www.w3.org/2000/svg" xmlns:xlink="http://www.w3.org/1999/xlink" viewBox="0 0 8192 8192">
  <defs>
    <filter id="outer-glow">
      <feOffset dx="0" dy="0"/>
      <feGaussianBlur result="blur" stdDeviation="10"/>
      <feFlood flood-color="#000" flood-opacity="1"/>
      <feComposite in2="blur" operator="in"/>
      <feComposite in="SourceGraphic"/>
    </filter>
    <style>
      .route {
        fill: none;
        stroke: #afdfb3;
        stroke-miterlimit: 10;
        stroke-width: 20px;
        filter: url(#outer-glow);
      }
    </style>
  </defs>
  <g id="roads">
    <path id="P001-P002" class="route" d="M2090.3,6420.6l103.1-115.6s92.4-60.4,129.8-67.6c37.3-7.1,99.6-37.3,119.1-58.7,19.6-21.3,37.3-58.7,74.7-80,37.3-21.3,115.6-30.2,136.9-40.9,21.3-10.7,112-17.8,113.8-60.4,1.8-42.7,71.1-78.2,138.7-92.4,67.6-14.2,158.2-65.8,165.3-104.9,7.1-39.1-49.8-78.2-49.8-78.2"/>
    <path id="P002-P003" class="route" d="M3023.7,5711.2s129.6-69.3,142.2-83c14.5-15.7,26.7-53.3,65.8-55.1,39.1-1.8,94.2,5.3,113.8,37.3,19.6,32,151.1,60.4,206.2,55.1s134.8-75.6,192-60.4c35.7,9.4,129.8,42.7,156.4,78.2,26.7,35.6,76.4,69.3,76.4,69.3"/>
    <path id="P002-P004" class="route" d="M3011.2,5684.6s12-131.6-27.1-174.2c-39.1-42.7,3.6-112-65.8-152.9-69.3-40.9-88.9-56.9-60.4-113.8,28.4-56.9,119.9-80,155.1-96,27.5-12.5,176.9-53.2,251-74.1"/>
    <path id="P002-P030" class="route" d="M1741.3,5606.4c24.9,40.3,96.5,55.7,170.7,50.7s78.2-32.3,172.4-47.4c94.2-15.1,158,47.2,158,47.2,21.7,37.2,103.7,53.6,149.3,50.5,45.7-3.1,173.3-98.2,261.3-100.9,79.1-2.4,108.5,3.2,126.6,3.7,15,.4,47.8,4.8,74.1,8.1,13.7,1.7,106.4,27.5,135,89.5"/>
    <path id="P003-P005" class="route" d="M4017,5722.6s59.8-70.8,79-136.7c19.2-65.9-7.4-124.6-11-156.6-3.6-32-26.7-67.6-12.4-108.4,14.2-40.9,19.6-138.7,7.1-156.4-12.4-17.8-34.2-64-34.2-64"/>
    <path id="P003-P006" class="route" d="M3995.7,5752.7s226.7,117.8,309.3,115.1c82.7-2.7,194.9-55.3,245.3-31.3,70.9,33.8,232,95.3,269.3,140.6,37.3,45.3,189.1,243.2,231.8,251.2,42.7,8,241.6,122.1,241.6,170.1s125.3,107.4,125.3,107.4"/>
    <path id="P003-P008" class="route" d="M4059.9,5745s107.5-65.4,168.8-82.2c61.3-16.8,122.7-102.2,232-70.2,109.3,32,175.6-2.7,226.5-34.7,50.9-32,117.5-77.3,234.9-61.3,117.3,16,301.3-52.9,325.3-85.1s120.5-21.6,170.9-66.9c50.4-45.3,79.7-32.9,79.7-32.9"/>
    <path id="P004-P005" class="route" d="M3305.8,5062c87.1-17.8,55.2-33.5,156.6-42.4,101.3-8.9,241.8,23.1,254.2,23.1s152.9,24.3,188.4,19.3,112,0,112,0"/>
    <path id="P004-P012" class="route" d="M3284.5,5062s-99.9-93.2-170.1-99.4c-70.2-6.2-292.4-38.7-320.9-70.7-28.4-32-103.1,5.3-138.7-48-35.6-53.3-92.4-75-112-125.5-19.6-50.5-69.3-109.2-90.7-118.1-21.3-8.9-40.9-34.1-92.4-33s-96,17-96,17"/>
    <path id="P005-P010" class="route" d="M4096,5040.4s69.3-132.2,136.9-128.7c67.6,3.6,174.2-24.9,220.4-42.7,46.2-17.8,64.2-174.2,108.6-216.9,44.3-42.7,101.2-59,101.2-59"/>
    <path id="P006-P007" class="route" d="M5484.1,6505.9s93.3-20.6,152-76.6c58.7-56,98.7-96,133.3-96s157.3,2.7,250.7,18.7c93.3,16,152,2.7,165.3-18.7,13.3-21.3,69.3-40,69.3-40"/>
    <path id="P007-P008" class="route" d="M5597.6,5311.7s121.7,85.3,139.1,156.4c17.4,71.1,30.8,103.9-41.7,151.5-72.5,47.6-36.1,111.6,41.7,161.4,77.8,49.8,273,76.9,286.4,120.5,17.2,55.7,107.8,121.3,107.8,139.1s63.9,122.2,74.7,131.6c8,7,120.2,17.7,120.2,17.7,0,0,49.8,17.2,48.6,35.6-1.2,18.4-65.2,53.3-65.2,53.3"/>
    <path id="P008-P009" class="route" d="M5580.7,5277.1s155.6-164.5,212.5-114.7c56.9,49.8,184.9,53.3,216.9,42.7,32-10.7,135.1-18,138.7-62.4,3.6-44.3,61.9-50.1,20.3-102.3-41.6-52.2-137.6-112.7-137.6-148.2s24.2-116,56.9-113.8c123.9,8.3,191.1-59,186-86.5"/>
    <path id="P008-P011" class="route" d="M5442.9,4325.7s109.3,106.7,93.3,136-82.9,142.5-66,190.5c16.9,48,94.4,90.7,74.3,144-20.1,53.3,38.6,152-17.4,189.3-56,37.3-109.3,111.7-96,157.2,13.3,45.5,82.7,134.4,82.7,134.4"/>
    <path id="P009-P011" class="route" d="M5470.2,4302s97.2-12.9,116.7-10c19.6,2.9,280.9,8.2,448,66.9,167.1,58.7,94.9,168.1,115.6,208.5,20.7,40.4,112,104.4,112,104.4"/>
    <path id="P009-P022" class="route" d="M6294.5,4680.3s126.3-24.6,151.1-92.1c24.9-67.6,135.1-128.4,108.4-170.9-26.7-42.4-28.4-103.3-17.8-125.3,10.7-22,49.8-82.4,80-105.6,30.2-23.1,71.1-21.3,81.8-56.9,10.7-35.6,112.7-87.4,94.9-114.1,0,0-11.1-27.1-37.8-42.2s-31.1-.4-38.7-20.4"/>
    <path id="P010-P011" class="route" d="M4720,4567.4s174.2-82.3,245.3-75.2c71.1,7.1,177.8-68,199.1-74.9s167.1-78,220.4-74.4"/>
    <path id="P010-P023" class="route" d="M4663.1,4542.9c-109.4-24.1-198-52.4-261-75-145.5-52.2-229.5-83.2-309.3-159.6-65.8-62.9-102.2-131.1-122.1-176.8"/>
    <path id="P011-P024" class="route" d="M5976.8,3519.9c-24.9-25.1-113.5,100.7-162.3,97.4-48.3-3.2-99.6,58.9-124.8,83.8-25.3,24.9-24.5,53.3-3.2,107.3,21.3,54-71.1,59.8-81.8,98.9-10.7,39.1-98.9,69-119.3,72.6-22.8,4-90.5,98.1-66.3,137.2s-62.1,83.8-62.1,83.8c0,0-54,39,32.2,95.9"/>
    <path id="P012-P016" class="route" d="M2103.4,3809.8c1.7,8.5-93.7,44.8-111.1,71.1-36.6,55.6-53.1,117.4-118.2,146.4-96,42.7-96,106.7-144,217.8-48,111.1,69.3,123.6,176,172.2,106.7,48.7,153.4-51.2,220.1-3.2,52.2,37.6,41.7,68.4,35.5,79-2.1,3.7-3.4,7.9-3.7,12.2-1.5,18.6-.8,64.5,37.5,87.9"/>
    <path id="P013-P025" class="route" d="M4289.5,3390.6s-157.6-74.3-167.1-152.9c-7.3-59.9-36.2-41.9-49.5-103-11.2-51.2,0-127.5-18.1-179-25.2-71.4-67.9-96.9-74.2-127.7-11-54.2,107.7-153.3,107.7-153.3"/>
    <path id="P013-P028" class="route" d="M3756.1,2047c112.5,86.8,47.5,147.7,30.6,171.9-8.7,12.5-66.7,62.2-128,59.6-46.5-2-70.8,38.3-79.9,57.9s-4.1,14.5-2.5,21.9c12.8,58.2,77.8,84,129.1,109.2,26.1,12.8,362.1,189.4,362.1,189.4"/>
    <path id="P014-P026" class="route" d="M2130.9,3784.9c28.4-33.8,51.2-74.7,80-78.2,20.5-2.5,65.2,49.3,82.3,44.9,98.1-25.4,144.1-78.4,166.6-113.6,13.8-21.6,19.6-44.7,48-69.3,55.7-48.4,115.5-30.9,181.3-51.9,44-14,69.7-55.1,126.2-155.6"/>
    <path id="P014-P025" class="route" d="M4264.1,3418s-36,73.4-62.8,68.9c-26.8-4.6-258.6-10.6-281.2-68.9-22.6-58.3-179.9-78.1-211.9-78.9-32-.8-152-67.4-205.3-70.1-53.3-2.7-93.3-62.4-173.3-55.2-80,7.2-194.7,25.9-237.3,41.9-42.7,16-146.7,27.2-213.3,77.6"/>
    <path id="P015-P026" class="route" d="M3173.1,3803.2l-41.8-32.9c-48.4-44.4-163.9,75.7-268.1,70.3-104.2-5.3-190.4-144.6-250.7-128-29.6,8.1-4.4,51-63,104.3-34.4,31.2-132.5,73.1-222.7,80.3-63.8,5.1-164.7-27.9-189.6-85.7"/>
    <path id="P015-P023" class="route" d="M3284.5,3833.5s-8.9,32,21.3,50.5c30.2,18.5,39.1-5.2,62.3-9.7s51.4,36.5,99.4,59.4,64,46.4,69.3,59.8c5.3,13.3,80,26.7,157.3,16,42.5-5.9,85.9,41.1,131.1,71s79.5,32.1,88.3,33.2c19.6,2.4,28.4.6,28.4.6"/>
    <path id="P017-P019" class="route" d="M7112.8,2313.3s52.1,35.2,52.1,72.7c0,37.5-55.7,78.4-41.5,145.1,14.2,66.6,64,105.7,103.1,152,39.1,46.2-205.1,142.3-205.1,142.3"/>
    <path id="P018-P019" class="route" d="M5784.8,2632.8s101.3-115,136.9-123.1c35.6-8,138.7-75.6,177.8-72s152.9,28.2,263.1-.1c110.2-28.3,224-17.6,270.2-42.5,46.2-24.9,113.8-74.7,177.8-64,64,10.7,70.6,73.4,142.2,50.2,68.7-22.2,119.3-85.8,119.3-85.8"/>
    <path id="P018-P024" class="route" d="M5769.9,2656.4s174.2,166,184.9,240.7c10.7,74.7,54.2,212.4,124.4,220.4,80.6,9.2,128,113.8,92.4,163.6-35.6,49.8-106.7,224-152.9,220.4"/>
    <path id="P018-P027" class="route" d="M5415.5,2058.7s35.8,83.3,132.3,122.7c96.5,39.4,173.5,51.9,222.1,88.3,48.6,36.4,90.1,178.6,69.4,192.9-20.7,14.2-159.4,67.6-159.4,92.4s54.4,101.4,72.2,101.4"/>
    <path id="P023-P025" class="route" d="M4328.1,3418s122.7,87.1,101.4,126.2c-21.3,39.1-98.7,207.1-133.3,185.8-34.7-21.3-64,69.3-146.7,90.7-82.7,21.3-82.7,108.4-82.7,136.9s-59,147.2-96.1,138.5"/>
    <path id="P022-P024" class="route" d="M6079.9,3501.6s134.7,18.8,216.7,86.4c82,67.6,214.9,192.4,309.3,220.5,35.8,10.6,26.1,47.6,39.6,70.6s53.8,60.4,53.8,60.4"/>
    <path id="P028-P029" class="route" d="M4682.6,2002.1c0-7.1-188.4-92.4-250.6-74.7-62.1,17.8-172.5-32-210.6-42.7-38.1-10.7-57.9,35.6-209.1,42.7-60.5,2.8-84.4,50.1-121.9,62.2-56.1,18.2-99.7,37.4-111.1,46.2-19,14.8-27.6,11.1-27.6,11.1"/>
    <path id="P016-P028" class="route" d="M2771.8,2294.3s48.5-24.6,85.3-46.2c30.2-17.8,48.9,37.3,83.3,31.1,61.1-11,320,10.7,382,18.7,62,8,154.9-107.6,226-119.1,71.1-11.5,185.4-137.5,185.4-137.5"/>
    <path id="P021-P028" class="route" d="M4639.5,1342.9s-28.9,59.1-72.6,63.4-141.2-35.5-165.3-33.4c-42.7,3.6-245.3,42.7-334,91.6-88.7,48.9-39.3,68.4-97,125.3-57.7,56.9-177-17.8-262.2,39.1-85.2,56.9-81.9,206.2-78.3,254.4,3.6,48.2,102,144.7,102,144.7"/>
    <path id="P027-P029" class="route" d="M4723.4,2012.8s181.3,69.3,229.3,69.3,131.6-21.3,181.3-17.8c49.8,3.6,81.8,85.8,119.1,77.6,37.3-8.2,106.4-64.3,139.3-93.6"/>
    <path id="P020-P027" class="route" d="M5444.3,2032.9s96-40,99.6-70.1c3.6-30.1,90.2-105.9,91.3-155.6,1.1-49.8-55.8-206.1-112.7-197.3"/>
  </g>
  <g id="places">
    <g id="P000" transform="translate(5003.1, 2888.8)">
      <image width="1024" height="696" transform="translate(-256, -174) scale(0.5)" xlink:href="map_overlay-2.png"/>
    </g>
    <g id="P001" transform="translate(2067.7, 6393.3)">
      <image width="1010" height="893" transform="translate(-101, -89.3) scale(0.2)" xlink:href="map_overlay-3.png"/>
    </g>
    <g id="P002" transform="translate(3024.8, 5720.4)">
      <image width="1130" height="839" transform="translate(-169.5, -125.8) scale(0.3)" xlink:href="map_overlay-4.png"/>
    </g>
    <g id="P003" transform="translate(3962.8, 5724.9)">
      <image width="1010" height="893" transform="translate(-101, -89.3) scale(0.2)" xlink:href="map_overlay-5.png"/>
    </g>
    <g id="P004" transform="translate(3261.8, 5041.9)">
      <image width="1010" height="893" transform="translate(-101, -89.3) scale(0.2)" xlink:href="map_overlay-6.png"/>
    </g>
    <g id="P005" transform="translate(4022.8, 5041.9)">
      <image width="1010" height="893" transform="translate(-101, -89.3) scale(0.2)" xlink:href="map_overlay-7.png"/>
    </g>
    <g id="P006" transform="translate(5395.7, 6485.8)">
      <image width="1010" height="893" transform="translate(-101, -89.3) scale(0.2)" xlink:href="map_overlay-8.png"/>
    </g>
    <g id="P007" transform="translate(6271.7, 6261.9)">
      <image width="1010" height="893" transform="translate(-101, -89.3) scale(0.2)" xlink:href="map_overlay-9.png"/>
    </g>
    <g id="P008" transform="translate(5578.3, 5290.2)">
      <image width="1130" height="839" transform="translate(-169.5, -125.8) scale(0.3)" xlink:href="map_overlay-10.png"/>
    </g>
    <g id="P009" transform="translate(6273.9, 4672.6)">
      <image width="1010" height="893" transform="translate(-101, -89.3) scale(0.2)" xlink:href="map_overlay-11.png"/>
    </g>
    <g id="P010" transform="translate(4664.6, 4547.2)">
      <image width="1010" height="893" transform="translate(-101, -89.3) scale(0.2)" xlink:href="map_overlay-12.png"/>
    </g>
    <g id="P011" transform="translate(5396.6, 4271.8)">
      <image width="1010" height="893" transform="translate(-101, -89.3) scale(0.2)" xlink:href="map_overlay-13.png"/>
    </g>
    <g id="P012" transform="translate(2211.7, 4573)">
      <image width="1010" height="893" transform="translate(-101, -89.3) scale(0.2)" xlink:href="map_overlay-14.png"/>
    </g>
    <g id="P013" transform="translate(4073.4, 2636.3)">
      <image width="1010" height="893" transform="translate(-101, -89.3) scale(0.2)" xlink:href="map_overlay-15.png"/>
    </g>
    <g id="P014" transform="translate(2819.3, 3319)">
      <image width="1010" height="893" transform="translate(-101, -89.3) scale(0.2)" xlink:href="map_overlay-16.png"/>
    </g>
    <g id="P015" transform="translate(3220.2, 3788.3)">
      <image width="1010" height="893" transform="translate(-101, -89.3) scale(0.2)" xlink:href="map_overlay-17.png"/>
    </g>
    <g id="P016" transform="translate(2715.3, 2255.8)">
      <image width="1010" height="893" transform="translate(-101, -89.3) scale(0.2)" xlink:href="map_overlay-18.png"/>
    </g>
    <g id="P017" transform="translate(6998.8, 2805.2)">
      <image width="1010" height="893" transform="translate(-101, -89.3) scale(0.2)" xlink:href="map_overlay-19.png"/>
    </g>
    <g id="P018" transform="translate(5729.5, 2615)">
      <image width="1010" height="893" transform="translate(-101, -89.3) scale(0.2)" xlink:href="map_overlay-20.png"/>
    </g>
    <g id="P019" transform="translate(7082.8, 2275.4)">
      <image width="1010" height="893" transform="translate(-101, -89.3) scale(0.2)" xlink:href="map_overlay-21.png"/>
    </g>
    <g id="P020" transform="translate(5495.3, 1569.6)">
      <image width="1010" height="893" transform="translate(-101, -89.3) scale(0.2)" xlink:href="map_overlay-22.png"/>
    </g>
    <g id="P021" transform="translate(4612.2, 1305.6)">
      <image width="1010" height="893" transform="translate(-101, -89.3) scale(0.2)" xlink:href="map_overlay-23.png"/>
    </g>
    <g id="P022" transform="translate(6708.6, 3913.6)">
      <image width="1010" height="893" transform="translate(-101, -89.3) scale(0.2)" xlink:href="map_overlay-24.png"/>
    </g>
    <g id="P023" transform="translate(3916.8, 4129.5)">
      <image width="1251" height="764" transform="translate(-250.2, -152.8) scale(0.4)" xlink:href="map_overlay-25.png"/>
    </g>
    <g id="P024" transform="translate(5997.4, 3487.7)">
      <image width="994" height="549" transform="translate(-149.1, -82.3) scale(0.3)" xlink:href="map_overlay-26.png"/>
    </g>
    <g id="P025" transform="translate(4332.6, 3391.3)">
      <image width="994" height="549" transform="translate(-149.1, -82.3) scale(0.3)" xlink:href="map_overlay-27.png"/>
    </g>
    <g id="P026" transform="translate(2109.5, 3821.4)">
      <image width="1130" height="839" transform="translate(-169.5, -125.8) scale(0.3)" xlink:href="map_overlay-28.png"/>
    </g>
    <g id="P027" transform="translate(5411.8, 2060.1)">
      <image width="1130" height="839" transform="translate(-169.5, -125.8) scale(0.3)" xlink:href="map_overlay-29.png"/>
    </g>
    <g id="P028" transform="translate(3775.3, 2060.1)">
      <image width="1130" height="839" transform="translate(-169.5, -125.8) scale(0.3)" xlink:href="map_overlay-30.png"/>
    </g>
    <g id="P029" transform="translate(4688.6, 1988.9)">
      <image width="930" height="746" transform="translate(-139.5, -111.9) scale(0.3)" xlink:href="map_overlay-31.png"/>
    </g>
    <g id="P030" transform="translate(1689.8, 5566.9)">
      <image width="1010" height="893" transform="translate(-101, -89.3) scale(0.2)" xlink:href="map_overlay-32.png"/>
    </g>
  </g>
</svg>
